<svg xmlns="http://www.w3.org/2000/svg" width="84" height="39">
    <path fill="#181818"
          d="M15.88 9.32h-.478a21.922 21.922 0 0 0-1.105-.284 6.4 6.4 0 0 0-1.46-.159c-1.25 0-2.096.224-2.538.672-.442.448-.663 1.315-.663 2.6v.16h4.917v4.316H9.848v15.548H3.48V16.625H.756v-4.316H3.48v-.549c0-2.429.646-4.25 1.937-5.465 1.291-1.215 3.246-1.822 5.864-1.822.943 0 1.798.032 2.564.097.767.065 1.445.15 2.035.256V9.32Zm16.81 0h-.478a21.922 21.922 0 0 0-1.105-.284 6.4 6.4 0 0 0-1.46-.159c-1.25 0-2.096.224-2.538.672-.442.448-.663 1.315-.663 2.6v.16h4.917v4.316h-4.705v15.548H20.29V16.625h-2.724v-4.316h2.724v-.549c0-2.429.646-4.25 1.937-5.465 1.291-1.215 3.246-1.822 5.864-1.822.943 0 1.798.032 2.565.097.766.065 1.444.15 2.034.256V9.32Zm24.24 12.93c0 3.266-.953 5.84-2.857 7.72-1.905 1.882-4.579 2.822-8.022 2.822-3.444 0-6.118-.94-8.022-2.821-1.905-1.881-2.857-4.455-2.857-7.721 0-3.29.958-5.873 2.875-7.748 1.916-1.875 4.584-2.812 8.004-2.812 3.467 0 6.147.943 8.04 2.83 1.892 1.887 2.839 4.463 2.839 7.73Zm-7.837 4.829c.413-.507.722-1.118.929-1.831.206-.713.31-1.701.31-2.963 0-1.167-.107-2.146-.319-2.936-.212-.79-.507-1.421-.884-1.893a3.103 3.103 0 0 0-1.362-1.026c-.531-.2-1.103-.3-1.716-.3-.614 0-1.159.082-1.637.247-.477.165-.934.495-1.37.99-.39.46-.7 1.092-.929 1.893-.23.802-.345 1.81-.345 3.025 0 1.085.1 2.026.3 2.822.201.796.496 1.435.885 1.919.378.46.829.796 1.353 1.008.525.212 1.124.318 1.796.318.578 0 1.129-.097 1.654-.291a3.03 3.03 0 0 0 1.335-.982Zm34.216-4.83c0 3.267-.952 5.841-2.857 7.722-1.904 1.88-4.578 2.821-8.022 2.821-3.443 0-6.117-.94-8.021-2.821-1.905-1.881-2.857-4.455-2.857-7.721 0-3.29.958-5.873 2.874-7.748 1.917-1.875 4.585-2.812 8.004-2.812 3.467 0 6.147.943 8.04 2.83 1.893 1.887 2.839 4.462 2.839 7.729Zm-7.836 4.83c.413-.507.722-1.118.929-1.831.206-.713.31-1.701.31-2.963 0-1.167-.107-2.146-.32-2.936-.212-.79-.506-1.421-.884-1.893a3.103 3.103 0 0 0-1.362-1.026 4.82 4.82 0 0 0-1.716-.3c-.613 0-1.158.082-1.636.247-.477.165-.934.495-1.37.99-.39.46-.7 1.092-.93 1.893-.23.802-.344 1.81-.344 3.025 0 1.085.1 2.026.3 2.822.201.796.496 1.435.885 1.919.377.46.828.796 1.353 1.008.525.212 1.123.318 1.796.318.577 0 1.129-.097 1.653-.291a3.03 3.03 0 0 0 1.336-.982Z"/>
</svg>